<?xml version="1.0" encoding="UTF-8" standalone="no"?>
<svg
   xmlns:dc="http://purl.org/dc/elements/1.1/"
   xmlns:cc="http://creativecommons.org/ns#"
   xmlns:rdf="http://www.w3.org/1999/02/22-rdf-syntax-ns#"
   xmlns:svg="http://www.w3.org/2000/svg"
   xmlns="http://www.w3.org/2000/svg"
   xmlns:sodipodi="http://sodipodi.sourceforge.net/DTD/sodipodi-0.dtd"
   xmlns:inkscape="http://www.inkscape.org/namespaces/inkscape"
   width="90.910378mm"
   height="21.166664mm"
   viewBox="0 0 90.910378 21.166664"
   version="1.1"
   id="svg8"
   inkscape:version="1.0.2-2 (e86c870879, 2021-01-15)"
   sodipodi:docname="logo.svg">
  <defs
     id="defs2">
    <rect
       x="88.733482"
       y="59.066566"
       width="40.3577"
       height="12.561668"
       id="rect847" />
  </defs>
  <sodipodi:namedview
     id="base"
     pagecolor="#ffffff"
     bordercolor="#666666"
     borderopacity="1.0"
     inkscape:pageopacity="0.0"
     inkscape:pageshadow="2"
     inkscape:zoom="0.98994949"
     inkscape:cx="60.685297"
     inkscape:cy="24.695152"
     inkscape:document-units="mm"
     inkscape:current-layer="layer1"
     inkscape:document-rotation="0"
     showgrid="false"
     inkscape:window-width="1920"
     inkscape:window-height="1009"
     inkscape:window-x="-8"
     inkscape:window-y="-8"
     inkscape:window-maximized="1"
     fit-margin-top="0"
     fit-margin-left="0"
     fit-margin-right="0"
     fit-margin-bottom="0" />
  <metadata
     id="metadata5">
    <rdf:RDF>
      <cc:Work
         rdf:about="">
        <dc:format>image/svg+xml</dc:format>
        <dc:type
           rdf:resource="http://purl.org/dc/dcmitype/StillImage" />
        <dc:title></dc:title>
      </cc:Work>
    </rdf:RDF>
  </metadata>
  <g
     inkscape:label="Vrstva 1"
     inkscape:groupmode="layer"
     id="layer1"
     transform="translate(-63.593391,-61.241077)">
    <path
       id="path934"
       style="fill:#ffffff;fill-opacity:1;stroke-width:0.152935"
       d="m 90.543738,61.241077 c -0.607391,0 -1.208902,0.119359 -1.804024,0.358635 -0.588984,0.23314 -1.162516,0.555286 -1.720824,0.966348 -0.552175,0.411062 -1.082924,0.892699 -1.592151,1.444874 -0.503092,0.552172 -0.972579,1.141018 -1.408184,1.766816 -0.429469,0.625798 -0.821859,1.273257 -1.177706,1.941999 -0.355846,0.668745 -0.659508,1.328354 -0.911055,1.978692 -0.251545,0.644202 -0.444834,1.263682 -0.579811,1.858801 -0.134974,0.595122 -0.20257,1.129038 -0.20257,1.601454 0,0.171786 0.01532,0.401521 0.04599,0.68988 0.03068,0.288356 0.137885,0.604687 0.321943,0.948261 0.153384,0.276088 0.344022,0.552286 0.571026,0.828374 0.227005,0.282223 0.472057,0.536773 0.735873,0.763778 0.263816,0.23314 0.531032,0.420094 0.800983,0.561205 0.269952,0.147248 0.524502,0.220659 0.763778,0.220659 0.331304,0 0.671933,-0.07341 1.021644,-0.220659 0.34971,-0.141111 0.696156,-0.328065 1.03973,-0.561205 0.343575,-0.227005 0.677871,-0.484722 1.003038,-0.773079 0.325171,-0.288358 0.628833,-0.573539 0.911056,-0.855763 0.288359,-0.288358 0.546076,-0.56139 0.773081,-0.81907 0.227004,-0.257683 0.413959,-0.469453 0.561205,-0.635103 -0.104299,-0.110437 -0.257456,-0.251444 -0.45992,-0.42323 -0.202465,-0.177925 -0.404736,-0.353246 -0.607198,-0.525034 -0.202464,-0.171786 -0.380436,-0.318612 -0.533818,-0.441317 -0.147246,-0.122704 -0.221175,-0.187135 -0.221175,-0.193271 -0.104299,0.141113 -0.254289,0.334399 -0.450618,0.579811 -0.196328,0.239276 -0.417599,0.502809 -0.663008,0.791165 -0.245412,0.282223 -0.508945,0.570571 -0.791168,0.865066 -0.276087,0.294492 -0.552286,0.561708 -0.828373,0.800983 -0.269952,0.239276 -0.52767,0.435214 -0.773079,0.588595 -0.239275,0.147246 -0.447878,0.221176 -0.625803,0.221176 -0.104298,0 -0.196193,-0.01267 -0.275952,-0.03721 -0.07976,-0.02454 -0.147352,-0.07049 -0.20257,-0.137975 -0.04908,-0.07362 -0.0887,-0.168685 -0.119372,-0.285256 -0.02454,-0.122705 -0.03721,-0.275862 -0.03721,-0.459919 0,-0.490821 0.0771,-1.043221 0.230479,-1.656747 0.159517,-0.619662 0.370768,-1.266603 0.634584,-1.941484 0.269952,-0.674878 0.583116,-1.359302 0.938962,-2.052587 0.361981,-0.693285 0.745389,-1.365043 1.150318,-2.015381 0.404926,-0.656474 0.822134,-1.270135 1.251603,-1.840714 0.435603,-0.57058 0.859145,-1.067533 1.270207,-1.490867 0.417197,-0.429466 0.812755,-0.766929 1.187008,-1.01234 0.37425,-0.251545 0.708546,-0.377238 1.003038,-0.377238 0.07362,0 0.144386,0.01267 0.211873,0.03721 0.06749,0.02454 0.125585,0.07049 0.174667,0.137975 0.05522,0.06135 0.098,0.15008 0.128675,0.26665 0.03068,0.11657 0.04599,0.270245 0.04599,0.460438 0,0.251545 -0.04278,0.515078 -0.128675,0.791165 -0.08589,0.269952 -0.202605,0.542986 -0.349851,0.819074 -0.14111,0.269951 -0.306416,0.539816 -0.496609,0.809768 -0.190193,0.263816 -0.389814,0.51255 -0.598414,0.745691 -0.202464,0.227004 -0.4079,0.432443 -0.6165,0.6165 -0.202462,0.177922 -0.395751,0.325263 -0.579808,0.441833 l 1.665531,1.600936 c 0.392657,-0.337439 0.760751,-0.720847 1.104326,-1.150316 0.34971,-0.429469 0.650724,-0.86781 0.902269,-1.315683 0.251547,-0.454009 0.450651,-0.901848 0.597897,-1.343586 0.147246,-0.447876 0.221176,-0.856099 0.221176,-1.224217 0,-0.16565 -0.04013,-0.346789 -0.119891,-0.543118 -0.07362,-0.202464 -0.175016,-0.401568 -0.303858,-0.597897 -0.128839,-0.202462 -0.278831,-0.398918 -0.450617,-0.589111 -0.171789,-0.190193 -0.349761,-0.356015 -0.533818,-0.497128 -0.184058,-0.147246 -0.371531,-0.263438 -0.561724,-0.349332 -0.190193,-0.09203 -0.370813,-0.137975 -0.542602,-0.137975 z m 40.216662,0.04599 c -0.75463,0 -1.50032,0.12886 -2.23655,0.38654 -0.73623,0.257683 -1.43862,0.600962 -2.10737,1.030428 -0.6626,0.429469 -1.27626,0.920604 -1.84071,1.472779 -0.56444,0.546039 -1.05506,1.11007 -1.47226,1.692921 -0.41106,0.58285 -0.73321,1.162714 -0.96635,1.739429 -0.23314,0.570579 -0.34985,1.089178 -0.34985,1.555459 0,0.153381 0.037,0.312872 0.11059,0.478525 0.0736,0.165651 0.17185,0.331475 0.29455,0.497126 0.12271,0.159517 0.26055,0.319008 0.41393,0.478525 0.15338,0.153382 0.31287,0.300204 0.47853,0.441315 0.0736,0.06749 0.16868,0.119769 0.28525,0.15658 0.11657,0.03681 0.23961,0.06428 0.36845,0.08268 0.12884,0.01227 0.2577,0.02177 0.38654,0.02791 h 0.35864 c 0.34357,0 0.65673,-0.01215 0.93896,-0.03669 0.28222,-0.02454 0.55842,-0.05252 0.82837,-0.0832 0.26995,-0.03681 0.5488,-0.06744 0.83716,-0.09198 0.28835,-0.03068 0.6105,-0.04916 0.96635,-0.0553 -0.15952,0.570582 -0.41724,1.073867 -0.77308,1.509469 -0.35585,0.429469 -0.76672,0.800729 -1.233,1.113628 -0.46628,0.312899 -0.96957,0.573781 -1.50947,0.782381 -0.53377,0.202465 -1.06452,0.358786 -1.59215,0.469223 -0.52763,0.110434 -1.0304,0.17803 -1.50895,0.20257 -0.47242,0.02454 -0.87748,0.01188 -1.21492,-0.03721 0.0307,0.06135 0.0888,0.150596 0.17467,0.267166 0.0859,0.11657 0.18729,0.24543 0.30386,0.38654 0.11043,0.141111 0.22979,0.288452 0.35863,0.441833 0.13498,0.153382 0.26384,0.297556 0.38654,0.432533 0.12884,0.141111 0.24872,0.266803 0.35915,0.377238 0.11044,0.11657 0.19916,0.202131 0.26665,0.257347 0.51537,0 1.05826,-0.07658 1.62884,-0.22996 0.57058,-0.147246 1.12932,-0.352682 1.67536,-0.616498 0.55217,-0.257683 1.07658,-0.561345 1.57354,-0.911055 0.49696,-0.355846 0.93265,-0.73609 1.3069,-1.141016 0.38039,-0.411065 0.68088,-0.834604 0.90175,-1.270209 0.22701,-0.441738 0.34055,-0.880076 0.34055,-1.31568 0,-0.153382 -0.0523,-0.356169 -0.15658,-0.607716 -0.1043,-0.251545 -0.23633,-0.497113 -0.39584,-0.736389 -0.15952,-0.239276 -0.33116,-0.444711 -0.51522,-0.6165 -0.18405,-0.171786 -0.35569,-0.257347 -0.51521,-0.257347 -0.30063,0 -0.61062,0.01215 -0.92966,0.03669 -0.31903,0.02454 -0.65333,0.05201 -1.00304,0.08268 -0.34971,0.03068 -0.7178,0.06131 -1.10432,0.09198 -0.38652,0.02454 -0.79475,0.03986 -1.22422,0.04599 0.19633,-0.687149 0.47886,-1.334093 0.84698,-1.941483 0.37425,-0.607391 0.79727,-1.166122 1.26969,-1.67535 0.47855,-0.509228 0.98817,-0.966049 1.52807,-1.370976 0.54604,-0.404926 1.08577,-0.745556 1.61954,-1.021643 0.53377,-0.282221 1.04604,-0.496642 1.53686,-0.643888 0.49082,-0.147245 0.92334,-0.221175 1.29759,-0.221175 0.1043,0 0.17506,0.01532 0.21188,0.04599 0.0429,0.02454 0.0736,0.07049 0.092,0.137975 0.0245,0.134977 -0.009,0.316116 -0.10128,0.543121 -0.092,0.227004 -0.22089,0.481555 -0.38655,0.763778 -0.15951,0.276085 -0.34963,0.564436 -0.5705,0.865063 -0.22087,0.300628 -0.44796,0.592143 -0.6811,0.874366 -0.227,0.28222 -0.45409,0.539938 -0.68109,0.773078 -0.22087,0.227005 -0.41998,0.410792 -0.5979,0.551905 0.11657,0.122706 0.24226,0.248915 0.37724,0.377754 l 0.40462,0.38654 c 0.13498,0.122706 0.26067,0.238897 0.37724,0.349332 0.12271,0.110434 0.22727,0.205496 0.31316,0.285255 0.23314,-0.147246 0.46921,-0.343186 0.70848,-0.588595 0.24542,-0.251547 0.48148,-0.527745 0.70849,-0.828373 0.227,-0.306763 0.44194,-0.628909 0.6444,-0.966351 0.20247,-0.337439 0.37727,-0.668568 0.52452,-0.993738 0.15338,-0.325167 0.27326,-0.631999 0.35915,-0.920356 0.0859,-0.294491 0.12868,-0.546393 0.12868,-0.754993 0,-0.02454 -0.009,-0.06415 -0.0274,-0.119372 -0.0123,-0.06135 -0.0276,-0.119449 -0.046,-0.174665 -0.0184,-0.06135 -0.0369,-0.113633 -0.0553,-0.156581 -0.0184,-0.04908 -0.0311,-0.07971 -0.0372,-0.09199 -0.0552,-0.06749 -0.12229,-0.162546 -0.20205,-0.285252 -0.0798,-0.128842 -0.17482,-0.2672 -0.28525,-0.414446 -0.11044,-0.147246 -0.23665,-0.297236 -0.37776,-0.450617 -0.14111,-0.159518 -0.3006,-0.303692 -0.47852,-0.432533 -0.17793,-0.128842 -0.37703,-0.2334 -0.5979,-0.313158 -0.21473,-0.07976 -0.45397,-0.119375 -0.71779,-0.119375 z m -25.85113,0.80977 c -0.81599,0.202465 -1.59812,0.668785 -2.34663,1.398882 -0.7485,0.730096 -1.48152,1.69337 -2.19935,2.889747 -0.717822,1.196377 -1.42971,2.613303 -2.135266,4.25142 -0.320019,0.746713 -0.642477,1.539148 -0.966349,2.36678 -0.252198,0.236961 -0.497906,0.41774 -0.73639,0.541568 -0.312897,0.159517 -0.653011,0.251412 -1.021125,0.275952 0.159517,-0.25768 0.285207,-0.518565 0.377237,-0.782381 0.09816,-0.263816 0.147278,-0.527349 0.147278,-0.791165 -0.01841,-0.04295 -0.06752,-0.119525 -0.147278,-0.22996 -0.07362,-0.110437 -0.162867,-0.230311 -0.267168,-0.359153 -0.09816,-0.134974 -0.199041,-0.263835 -0.30334,-0.386538 -0.09816,-0.128841 -0.177908,-0.230235 -0.239262,-0.303858 l -0.05529,0.05529 c -0.147246,0.141113 -0.282437,0.294785 -0.405143,0.460438 -0.122706,0.159518 -0.226748,0.309507 -0.312642,0.450618 -0.104299,0.159517 -0.193546,0.322175 -0.267169,0.487825 -0.110434,0.214736 -0.180678,0.408022 -0.211357,0.579811 -0.02454,0.165653 -0.03721,0.309827 -0.03721,0.43253 v 0.14728 c 0.0061,0.04908 0.01564,0.107178 0.02791,0.174665 -0.251547,0.343575 -0.493948,0.629274 -0.727088,0.856279 -0.23314,0.220869 -0.420095,0.331245 -0.561205,0.331245 -0.134977,0 -0.202573,-0.09241 -0.202573,-0.276469 0,-0.220868 0.0581,-0.530349 0.174667,-0.929142 0.11657,-0.404926 0.34049,-0.855932 0.671793,-1.352889 0.220869,-0.337439 0.423656,-0.607306 0.607716,-0.80977 0.184058,-0.208598 0.343549,-0.368089 0.478523,-0.478523 0.134975,-0.110434 0.242186,-0.187529 0.321945,-0.230476 0.07976,-0.04908 0.125704,-0.0887 0.137975,-0.119375 0,-0.02454 -0.02746,-0.07365 -0.08268,-0.147277 -0.05522,-0.07976 -0.125979,-0.159502 -0.211873,-0.23926 -0.07976,-0.07976 -0.168487,-0.150522 -0.26665,-0.211873 -0.09203,-0.06749 -0.181274,-0.101288 -0.267168,-0.101288 -0.03068,0 -0.07029,0.0032 -0.119372,0.0093 -0.04295,0.0061 -0.07358,0.01563 -0.09199,0.02791 -0.570579,0.159517 -1.064363,0.39242 -1.481563,0.699183 -0.411062,0.306763 -0.748525,0.662707 -1.012341,1.067633 -0.269952,0.398793 -0.466405,0.828149 -0.58911,1.288294 -0.128842,0.460144 -0.193271,0.9233 -0.193271,1.389581 0,0.14111 0.05228,0.303765 0.156581,0.487825 0.104299,0.184057 0.235807,0.358862 0.395324,0.524515 0.159518,0.159518 0.33749,0.294709 0.533818,0.405144 0.196329,0.110434 0.386448,0.165364 0.570508,0.165364 0.220869,0 0.454287,-0.03645 0.699699,-0.110072 0.245409,-0.07362 0.490979,-0.178183 0.736388,-0.313158 0.251547,-0.134977 0.496597,-0.294465 0.735872,-0.478525 0.239276,-0.184058 0.463196,-0.386326 0.671793,-0.607198 0.269952,0 0.534004,-0.02165 0.791684,-0.06459 0.25768,-0.04908 0.509066,-0.125662 0.754475,-0.22996 0.132273,-0.05484 0.263716,-0.121169 0.394293,-0.196371 -0.244012,0.646779 -0.488664,1.307642 -0.734841,1.999879 -0.25768,0.03068 -0.52438,0.06131 -0.800467,0.09198 -0.282221,0.03681 -0.58007,0.07061 -0.892969,0.101287 l 0.138493,0.938959 c 0.208601,-0.01227 0.414036,-0.02759 0.616501,-0.04599 0.196328,-0.01841 0.392266,-0.04322 0.588594,-0.0739 -0.294491,0.82826 -0.585491,1.681157 -0.87385,2.5585 -0.288356,0.877342 -0.583038,1.785686 -0.883666,2.724382 l 2.411222,-0.791683 c 0.288359,-0.932561 0.564558,-1.806588 0.828374,-2.622579 0.263816,-0.815991 0.518366,-1.585976 0.763778,-2.309937 0.503092,-0.14111 0.993711,-0.313267 1.472261,-0.515731 0.478551,-0.202462 0.948034,-0.441698 1.408184,-0.717786 0.46628,-0.28222 0.9231,-0.604369 1.37097,-0.966348 0.0562,-0.04479 0.11229,-0.09271 0.16847,-0.139009 -0.21487,0.573735 -0.43045,1.158941 -0.64699,1.76785 -0.25768,0.03068 -0.52438,0.06131 -0.80047,0.09198 -0.28222,0.03681 -0.57955,0.07061 -0.89245,0.101287 l 0.13798,0.938959 c 0.2086,-0.01227 0.41403,-0.02759 0.6165,-0.04599 0.19632,-0.01841 0.39278,-0.04322 0.58911,-0.0739 -0.2945,0.82826 -0.58601,1.681157 -0.87437,2.5585 -0.28836,0.877342 -0.583037,1.785686 -0.883664,2.724382 l 2.411224,-0.791683 c 0.28836,-0.932561 0.56455,-1.806588 0.82837,-2.622579 0.26382,-0.815991 0.51837,-1.585976 0.76378,-2.309937 0.50309,-0.14111 0.99371,-0.313267 1.47226,-0.515731 0.47855,-0.202462 0.94804,-0.441698 1.40818,-0.717786 0.44167,-0.267324 0.87503,-0.571653 1.30018,-0.910537 -2.6e-4,0.02165 -0.003,0.04226 -0.003,0.06408 0,0.134977 0.0581,0.297632 0.17466,0.487826 0.11657,0.190193 0.26391,0.370816 0.44184,0.542602 0.17179,0.177924 0.35926,0.32843 0.56172,0.451136 0.20246,0.122705 0.38625,0.18397 0.5519,0.183967 0.39266,0 0.79455,-0.04911 1.20562,-0.147278 0.41719,-0.09816 0.85288,-0.260818 1.30689,-0.487825 0.45401,-0.227005 0.92932,-0.527503 1.42627,-0.901753 0.0885,-0.06585 0.17933,-0.13793 0.26975,-0.209288 -4.2e-4,0.02718 -0.003,0.05318 -0.003,0.08061 0,0.134977 0.0581,0.297632 0.17467,0.487826 0.11657,0.190193 0.26391,0.370816 0.44183,0.542602 0.17179,0.177924 0.35874,0.32843 0.56121,0.451136 0.20246,0.122705 0.38676,0.18397 0.55242,0.183967 0.39265,0 0.79454,-0.04911 1.20561,-0.147278 0.4172,-0.09816 0.85289,-0.260818 1.30689,-0.487825 0.45401,-0.227005 0.92932,-0.527503 1.42627,-0.901753 0.50309,-0.374251 1.03701,-0.837406 1.60146,-1.389579 l -0.45114,-0.451135 c -0.30063,0.282223 -0.60429,0.561588 -0.91105,0.837676 -0.30677,0.276085 -0.62575,0.521652 -0.95705,0.736388 -0.33131,0.214733 -0.67827,0.389541 -1.04025,0.524515 -0.35584,0.134978 -0.73609,0.202573 -1.14101,0.202573 -0.22701,0 -0.38333,-0.0338 -0.46922,-0.101287 -0.0798,-0.06749 -0.1199,-0.196345 -0.1199,-0.386538 0,-0.141113 0.01,-0.285287 0.0279,-0.432533 0.5399,-0.239276 1.03369,-0.475861 1.48156,-0.709001 0.44788,-0.239276 0.83129,-0.472176 1.15032,-0.699183 0.31903,-0.227005 0.5646,-0.447757 0.73639,-0.66249 0.17792,-0.220869 0.26665,-0.435806 0.26665,-0.644406 0,-0.128842 -0.0491,-0.279347 -0.14728,-0.451136 -0.092,-0.177922 -0.21455,-0.346395 -0.36793,-0.505912 -0.15338,-0.159515 -0.32502,-0.294706 -0.51522,-0.405143 -0.18405,-0.110435 -0.37153,-0.165365 -0.56172,-0.165365 -0.26382,0 -0.55217,0.04278 -0.86506,0.128675 -0.3129,0.08589 -0.62872,0.214751 -0.94775,0.38654 -0.3129,0.171786 -0.61656,0.386723 -0.91106,0.644406 -0.28835,0.25768 -0.54607,0.555011 -0.77307,0.89245 -0.22701,0.337442 -0.40815,0.717682 -0.54312,1.141016 -0.0417,0.123171 -0.075,0.251748 -0.10439,0.382407 -0.0453,0.04101 -0.0895,0.08315 -0.13487,0.124024 -0.30677,0.276085 -0.62575,0.521652 -0.95705,0.736388 -0.33131,0.214733 -0.67775,0.389541 -1.03973,0.524515 -0.35585,0.134978 -0.73609,0.202573 -1.14102,0.202573 -0.227,0 -0.38384,-0.0338 -0.46974,-0.101287 -0.0798,-0.06749 -0.11937,-0.196345 -0.11937,-0.386538 0,-0.141113 0.009,-0.285287 0.0274,-0.432533 0.5399,-0.239276 1.03369,-0.475861 1.48156,-0.709001 0.44788,-0.239276 0.83128,-0.472176 1.15032,-0.699183 0.31903,-0.227005 0.5646,-0.447757 0.73639,-0.66249 0.17792,-0.220869 0.26717,-0.435806 0.26717,-0.644406 0,-0.128842 -0.0491,-0.279347 -0.14728,-0.451136 -0.092,-0.177922 -0.21507,-0.346395 -0.36845,-0.505912 -0.15339,-0.159515 -0.32503,-0.294706 -0.51522,-0.405143 -0.18406,-0.110435 -0.37101,-0.165365 -0.56121,-0.165365 -0.26381,0 -0.55216,0.04278 -0.86506,0.128675 -0.3129,0.08589 -0.62923,0.214751 -0.94826,0.38654 -0.3129,0.171786 -0.61656,0.386723 -0.91106,0.644406 -0.28835,0.25768 -0.54607,0.555011 -0.77308,0.89245 -0.227,0.337442 -0.40762,0.717682 -0.5426,1.141016 -0.0362,0.107011 -0.0671,0.217553 -0.0941,0.330213 -0.13249,0.11013 -0.26687,0.223927 -0.39377,0.323495 -0.39266,0.306764 -0.77924,0.576628 -1.15962,0.809768 -0.38039,0.227005 -0.76697,0.423461 -1.15962,0.589114 -0.38653,0.159514 -0.7974,0.297357 -1.233,0.413927 0.26381,-0.736232 0.51203,-1.411155 0.74517,-2.024682 0.23928,-0.613529 0.4632,-1.174908 0.6718,-1.684136 0.57671,-0.435605 1.13809,-0.898758 1.68413,-1.389578 0.54604,-0.496957 1.06147,-1.002893 1.54616,-1.518254 0.48468,-0.521499 0.92671,-1.046432 1.3255,-1.574064 0.40493,-0.527635 0.75137,-1.039902 1.03973,-1.536859 0.29449,-0.503092 0.52158,-0.981562 0.68109,-1.435571 0.16566,-0.460145 0.24857,-0.880517 0.24857,-1.260903 0,-0.07976 -0.006,-0.134689 -0.0186,-0.165365 -0.0123,-0.03681 -0.0339,-0.07061 -0.0646,-0.101285 -0.0675,-0.08589 -0.15305,-0.174622 -0.25735,-0.266652 -0.1043,-0.09816 -0.21468,-0.190575 -0.33125,-0.276469 -0.11657,-0.08589 -0.23644,-0.159305 -0.35915,-0.220657 -0.1227,-0.06749 -0.23941,-0.113435 -0.34984,-0.137978 -0.816,0.202465 -1.59813,0.668785 -2.34663,1.398882 -0.7485,0.730096 -1.48152,1.69337 -2.19935,2.889747 -0.71783,1.196377 -1.42972,2.613303 -2.13527,4.25142 -0.31962,0.745773 -0.64134,1.537187 -0.9648,2.363679 -0.36076,0.323369 -0.70773,0.621501 -1.03198,0.875916 -0.39266,0.306764 -0.77923,0.576628 -1.15962,0.809768 -0.38039,0.227005 -0.766959,0.423461 -1.159617,0.589114 -0.386521,0.159514 -0.797396,0.297357 -1.232998,0.413927 0.263816,-0.736232 0.512033,-1.411155 0.745173,-2.024682 0.239276,-0.613529 0.463195,-1.174908 0.671793,-1.684136 0.576709,-0.435605 1.138099,-0.898758 1.684139,-1.389578 0.54604,-0.496957 1.06147,-1.002893 1.54616,-1.518254 0.48468,-0.521499 0.92618,-1.046432 1.32498,-1.574064 0.40493,-0.527635 0.75189,-1.039902 1.04024,-1.536859 0.2945,-0.503092 0.52158,-0.981562 0.6811,-1.435571 0.16565,-0.460145 0.24805,-0.880517 0.24805,-1.260903 0,-0.07976 -0.006,-0.134689 -0.0181,-0.165365 -0.0123,-0.03681 -0.0339,-0.07061 -0.0646,-0.101285 -0.0675,-0.08589 -0.15304,-0.174622 -0.25734,-0.266652 -0.1043,-0.09816 -0.2152,-0.190575 -0.33177,-0.276469 -0.11657,-0.08589 -0.23592,-0.159305 -0.35863,-0.220657 -0.12271,-0.06749 -0.23941,-0.113435 -0.34985,-0.137978 z m 48.21411,0.110072 c -0.30676,0.05522 -0.63207,0.205724 -0.97565,0.451136 -0.33744,0.245409 -0.68072,0.567555 -1.03043,0.966348 -0.34971,0.392658 -0.69984,0.846828 -1.04955,1.362192 -0.34971,0.509225 -0.68717,1.057942 -1.01234,1.646928 -0.31903,0.582848 -0.6227,1.193345 -0.91105,1.831411 -0.28223,0.631934 -0.53361,1.264076 -0.75448,1.89601 -0.11657,-0.06749 -0.24226,-0.131919 -0.37724,-0.193271 -0.13497,-0.06749 -0.24535,-0.107619 -0.33124,-0.11989 -0.45401,0.141113 -0.88072,0.33175 -1.27951,0.571026 -0.39879,0.23314 -0.76372,0.496673 -1.09503,0.791165 -0.3313,0.288359 -0.62547,0.598355 -0.88315,0.929659 -0.18573,0.228923 -0.34931,0.459467 -0.49247,0.69143 -0.25138,0.234334 -0.50349,0.468077 -0.75913,0.698151 -0.30676,0.276085 -0.62626,0.521652 -0.95756,0.736388 -0.33131,0.214733 -0.67775,0.389541 -1.03973,0.524515 -0.35585,0.134978 -0.73609,0.202573 -1.14102,0.202573 -0.227,0 -0.38333,-0.0338 -0.46922,-0.101287 -0.0798,-0.06749 -0.11989,-0.196345 -0.11989,-0.386538 0,-0.141113 0.009,-0.285287 0.0274,-0.432533 0.5399,-0.239276 1.03421,-0.475861 1.48208,-0.709001 0.44787,-0.239276 0.83128,-0.472176 1.15032,-0.699183 0.31903,-0.227005 0.56408,-0.447757 0.73587,-0.66249 0.17792,-0.220869 0.26717,-0.435806 0.26717,-0.644406 0,-0.128842 -0.0491,-0.279347 -0.14728,-0.451136 -0.092,-0.177922 -0.21456,-0.346395 -0.36794,-0.505912 -0.15338,-0.159515 -0.32554,-0.294706 -0.51573,-0.405143 -0.18406,-0.110435 -0.37101,-0.165365 -0.56121,-0.165365 -0.26381,0 -0.55216,0.04278 -0.86506,0.128675 -0.3129,0.08589 -0.62871,0.214751 -0.94774,0.38654 -0.3129,0.171786 -0.61657,0.386723 -0.91106,0.644406 -0.28836,0.25768 -0.54607,0.555011 -0.77308,0.89245 -0.22701,0.337442 -0.40814,0.717682 -0.54312,1.141016 -0.0417,0.123171 -0.075,0.251748 -0.10439,0.382407 -0.0453,0.04101 -0.0894,0.08315 -0.13487,0.124024 -0.30676,0.276085 -0.62574,0.521652 -0.95705,0.736388 -0.3313,0.214733 -0.67826,0.389541 -1.04024,0.524515 -0.35585,0.134978 -0.73609,0.202573 -1.14102,0.202573 -0.227,0 -0.38333,-0.0338 -0.46922,-0.101287 -0.0798,-0.06749 -0.11989,-0.196345 -0.11989,-0.386538 0,-0.141113 0.01,-0.285287 0.0279,-0.432533 0.53991,-0.239276 1.03369,-0.475861 1.48157,-0.709001 0.44787,-0.239276 0.83128,-0.472176 1.15031,-0.699183 0.31904,-0.227005 0.56461,-0.447757 0.73639,-0.66249 0.17793,-0.220869 0.26665,-0.435806 0.26665,-0.644406 0,-0.128842 -0.0491,-0.279347 -0.14727,-0.451136 -0.092,-0.177922 -0.21456,-0.346395 -0.36794,-0.505912 -0.15338,-0.159515 -0.32502,-0.294706 -0.51521,-0.405143 -0.18406,-0.110435 -0.37153,-0.165365 -0.56173,-0.165365 -0.26381,0 -0.55216,0.04278 -0.86506,0.128675 -0.3129,0.08589 -0.62871,0.214751 -0.94775,0.38654 -0.3129,0.171786 -0.61656,0.386723 -0.91105,0.644406 -0.28836,0.25768 -0.54608,0.555011 -0.77308,0.89245 -0.22701,0.337442 -0.40814,0.717682 -0.54312,1.141016 -0.14111,0.417197 -0.21136,0.877702 -0.21136,1.380794 0,0.134977 0.0581,0.297632 0.17467,0.487826 0.11657,0.190193 0.26391,0.370816 0.44183,0.542602 0.17179,0.177924 0.35874,0.32843 0.56121,0.451136 0.20246,0.122705 0.38677,0.18397 0.55242,0.183967 0.39266,0 0.79455,-0.04911 1.20561,-0.147278 0.4172,-0.09816 0.85289,-0.260818 1.3069,-0.487825 0.45401,-0.227005 0.92931,-0.527503 1.42627,-0.901753 0.0886,-0.06591 0.17925,-0.137864 0.26975,-0.209288 -4.2e-4,0.02719 -0.003,0.05317 -0.003,0.08061 0,0.134977 0.0586,0.297632 0.17518,0.487826 0.11657,0.190193 0.26391,0.370816 0.44183,0.542602 0.17179,0.177924 0.35875,0.32843 0.56121,0.451136 0.20246,0.122705 0.38625,0.18397 0.5519,0.183967 0.39266,0 0.79455,-0.04911 1.20562,-0.147278 0.41719,-0.09816 0.85288,-0.260818 1.30689,-0.487825 0.45401,-0.227005 0.92983,-0.527503 1.42679,-0.901753 0.12022,-0.08943 0.24214,-0.184626 0.36587,-0.284221 -0.0652,0.241596 -0.0992,0.465818 -0.0992,0.670761 0,0.110435 0.0338,0.227145 0.10129,0.349848 0.0675,0.11657 0.14723,0.220615 0.23926,0.312645 0.092,0.09816 0.18709,0.177909 0.28525,0.23926 0.0982,0.06135 0.17791,0.09199 0.23926,0.09199 0.0675,0 0.14724,-0.01797 0.23927,-0.05478 0.30676,-0.11657 0.59511,-0.258095 0.86506,-0.423748 0.27608,-0.159515 0.54278,-0.334322 0.80047,-0.524516 0.26381,-0.196328 0.5247,-0.404931 0.78238,-0.6258 0.25768,-0.220869 0.52438,-0.453771 0.80047,-0.699183 -0.0368,0.306764 -0.0548,0.600927 -0.0548,0.88315 0,0.128842 0.0491,0.276183 0.14728,0.441833 0.1043,0.159518 0.22999,0.313193 0.37723,0.460439 0.14725,0.147246 0.30041,0.269772 0.45992,0.367935 0.15952,0.104299 0.29471,0.15658 0.40515,0.15658 0.2086,0 0.42935,-0.04595 0.66249,-0.137977 0.23314,-0.09203 0.47237,-0.211905 0.71779,-0.359151 0.2454,-0.153382 0.49097,-0.325019 0.73638,-0.515213 0.25155,-0.196328 0.49079,-0.395948 0.71779,-0.598413 0.23314,-0.2086 0.45073,-0.410869 0.65319,-0.607198 0.20246,-0.196328 0.3836,-0.3743 0.54312,-0.533818 -0.0675,-0.07362 -0.14407,-0.153368 -0.22996,-0.239262 -0.0859,-0.0859 -0.15982,-0.156655 -0.22118,-0.211873 -0.0736,0.07362 -0.1745,0.171849 -0.30334,0.294555 -0.12884,0.122706 -0.27618,0.25473 -0.44183,0.395843 -0.15952,0.14111 -0.33116,0.285284 -0.51521,0.43253 -0.18406,0.147246 -0.3652,0.282438 -0.54312,0.405144 -0.17793,0.11657 -0.34957,0.211629 -0.51522,0.285255 -0.15951,0.07362 -0.29787,0.110069 -0.41444,0.110069 -0.0982,0 -0.14728,-0.07658 -0.14728,-0.22996 0,-0.460145 0.0523,-0.972412 0.15658,-1.536856 0.11043,-0.570579 0.25778,-1.168926 0.44183,-1.794724 0.43561,-0.454009 0.86813,-0.922978 1.2976,-1.407666 0.4356,-0.484684 0.84964,-0.969488 1.2423,-1.454173 0.39266,-0.490821 0.75758,-0.972458 1.09502,-1.444874 0.34358,-0.472416 0.63826,-0.92342 0.88367,-1.352889 0.25155,-0.435604 0.448,-0.840663 0.58911,-1.214913 0.14111,-0.374251 0.21136,-0.702212 0.21136,-0.984436 -0.0245,-0.09203 -0.0858,-0.205573 -0.18397,-0.340547 -0.092,-0.134978 -0.20557,-0.263835 -0.34055,-0.386541 -0.13497,-0.128839 -0.27915,-0.23605 -0.43253,-0.321945 -0.14725,-0.09203 -0.28825,-0.138491 -0.42323,-0.138491 z m -47.98415,0.810287 c 0.0614,0 0.092,0.04278 0.092,0.128675 0,0.196326 -0.0549,0.447712 -0.16536,0.754475 -0.11044,0.306763 -0.26676,0.650557 -0.46922,1.030944 -0.20247,0.380386 -0.44487,0.788095 -0.72709,1.223697 -0.28222,0.429469 -0.59539,0.868326 -0.93896,1.316199 -0.34357,0.447876 -0.71484,0.892548 -1.11363,1.334286 -0.39265,0.435605 -0.80353,0.85281 -1.233,1.251604 0.14725,-0.337439 0.27927,-0.628955 0.39584,-0.874366 0.11657,-0.245409 0.21797,-0.447681 0.30386,-0.607198 0.0982,-0.190193 0.18056,-0.346517 0.24805,-0.469223 0.52763,-0.926425 0.99079,-1.711724 1.38958,-2.355926 0.39879,-0.644205 0.74258,-1.168622 1.03094,-1.573549 0.2945,-0.404926 0.5369,-0.699608 0.72709,-0.883666 0.19019,-0.18406 0.34335,-0.275952 0.45992,-0.275952 z m 5.66942,0 c 0.0614,0 0.092,0.04278 0.092,0.128675 0,0.196326 -0.0554,0.447712 -0.16588,0.754475 -0.11043,0.306763 -0.26675,0.650557 -0.46922,1.030944 -0.20246,0.380386 -0.44486,0.788095 -0.72708,1.223697 -0.28223,0.429469 -0.59539,0.868326 -0.93897,1.316199 -0.34357,0.447876 -0.71432,0.892548 -1.11311,1.334286 -0.39265,0.435605 -0.80404,0.85281 -1.23351,1.251604 0.14724,-0.337439 0.27927,-0.628955 0.39584,-0.874366 0.11657,-0.245409 0.21796,-0.447681 0.30386,-0.607198 0.0982,-0.190193 0.18107,-0.346517 0.24856,-0.469223 0.52763,-0.926425 0.99079,-1.711724 1.38958,-2.355926 0.39879,-0.644205 0.74207,-1.168622 1.03043,-1.573549 0.29449,-0.404926 0.53689,-0.699608 0.72708,-0.883666 0.1902,-0.18406 0.34387,-0.275952 0.46044,-0.275952 z m -42.021205,0.02015 c -1.887262,-0.0084 -2.383319,0.122066 -3.564641,0.937927 -1.028401,0.710247 -0.992148,0.881859 0.188619,0.894519 1.823397,0.01953 3.66264,1.139468 5.45393,3.321246 2.09886,2.556385 3.709717,3.958722 5.229137,4.552693 1.413733,0.552659 2.159445,0.164822 2.289784,-1.191659 0.28085,-2.922866 -2.713262,-6.575058 -6.587712,-8.035685 -1.124,-0.423717 -1.427769,-0.471942 -3.009117,-0.479041 z m 84.418615,0.283186 c 0.0307,0 0.046,0.02798 0.046,0.0832 0.006,0.05522 0.009,0.101166 0.009,0.137977 0,0.276087 -0.0919,0.625697 -0.27596,1.049031 -0.18405,0.423333 -0.43279,0.889653 -0.74569,1.398881 -0.3129,0.509227 -0.67782,1.048959 -1.09502,1.619541 -0.41106,0.564443 -0.84675,1.12899 -1.3069,1.693436 0.1902,-0.509227 0.39298,-1.012512 0.60772,-1.509469 0.21473,-0.496956 0.42915,-0.965927 0.64389,-1.407665 0.21473,-0.44174 0.4265,-0.849963 0.6351,-1.224217 0.2086,-0.37425 0.40505,-0.696396 0.58911,-0.966348 0.19019,-0.276087 0.35867,-0.490506 0.50591,-0.643887 0.15339,-0.153382 0.28224,-0.230479 0.38654,-0.230479 z m -87.909877,2.465999 c -0.740161,-0.0095 -0.857961,0.03739 -1.280541,0.510048 -0.444568,0.49725 -0.462166,0.568044 -0.390157,1.57458 0.241575,3.3763 4.128527,7.022605 8.276497,7.764383 1.726941,0.308822 3.771265,-0.106497 4.950085,-1.005623 0.552402,-0.421338 0.552384,-0.421153 -0.236678,-0.689364 -2.167948,-0.736907 -3.916503,-2.06856 -6.046142,-4.604369 -2.131078,-2.537526 -3.602564,-3.528203 -5.273064,-3.549655 z m 81.900427,5.16351 c -0.0982,0.300628 -0.18689,0.597959 -0.26665,0.892453 -0.0798,0.288356 -0.14736,0.573537 -0.20257,0.855761 -0.50309,0.478551 -0.9541,0.861959 -1.35289,1.150318 -0.39879,0.28222 -0.69929,0.423746 -0.90176,0.423746 -0.0736,0 -0.11058,-0.05228 -0.11058,-0.15658 0,-0.134975 0.0797,-0.331431 0.23926,-0.589111 0.16565,-0.263816 0.38059,-0.545833 0.64441,-0.84646 0.26381,-0.300628 0.56431,-0.604293 0.90175,-0.911056 0.34357,-0.306763 0.69319,-0.579795 1.04903,-0.819071 z m -35.32084,0.09198 c 0.0675,0 0.1166,0.02113 0.14728,0.06408 0.0368,0.04295 0.0553,0.09206 0.0553,0.147278 0,0.190193 -0.0523,0.380833 -0.15658,0.571026 -0.1043,0.190193 -0.24214,0.377148 -0.41393,0.561205 -0.17178,0.177922 -0.36824,0.349562 -0.58911,0.515215 -0.21473,0.165651 -0.43548,0.321975 -0.66249,0.46922 0.0982,-0.300627 0.21487,-0.588975 0.34985,-0.865063 0.13498,-0.28222 0.27598,-0.530439 0.42323,-0.745172 0.14724,-0.214736 0.29459,-0.386374 0.44183,-0.515215 0.14725,-0.134975 0.28192,-0.202571 0.40463,-0.202571 z m 5.93607,0 c 0.0675,0 0.1166,0.02113 0.14728,0.06408 0.0368,0.04295 0.0553,0.09206 0.0553,0.147278 0,0.190193 -0.0523,0.380833 -0.15658,0.571026 -0.1043,0.190193 -0.24214,0.377148 -0.41393,0.561205 -0.17178,0.177922 -0.36824,0.349562 -0.58911,0.515215 -0.21473,0.165651 -0.43548,0.321975 -0.66249,0.46922 0.0982,-0.300627 0.21436,-0.588975 0.34934,-0.865063 0.13497,-0.28222 0.2765,-0.530439 0.42374,-0.745172 0.14725,-0.214736 0.29407,-0.386374 0.44132,-0.515215 0.14724,-0.134975 0.28244,-0.202571 0.40514,-0.202571 z m 16.54679,0 c 0.0675,0 0.11661,0.02113 0.14728,0.06408 0.0368,0.04295 0.0553,0.09206 0.0553,0.147278 0,0.190193 -0.0523,0.380833 -0.15658,0.571026 -0.1043,0.190193 -0.24214,0.377148 -0.41393,0.561205 -0.17179,0.177922 -0.36824,0.349562 -0.58911,0.515215 -0.21474,0.165651 -0.43549,0.321975 -0.66249,0.46922 0.0982,-0.300627 0.21435,-0.588975 0.34933,-0.865063 0.13497,-0.28222 0.2765,-0.530439 0.42374,-0.745172 0.14725,-0.214736 0.29408,-0.386374 0.44132,-0.515215 0.14725,-0.134975 0.28244,-0.202571 0.40514,-0.202571 z m 5.93608,0 c 0.0675,0 0.1166,0.02113 0.14727,0.06408 0.0368,0.04295 0.0548,0.09206 0.0548,0.147278 0,0.190193 -0.0518,0.380833 -0.15606,0.571026 -0.1043,0.190193 -0.24266,0.377148 -0.41445,0.561205 -0.17179,0.177922 -0.36824,0.349562 -0.58911,0.515215 -0.21473,0.165651 -0.43549,0.321975 -0.66249,0.46922 0.0982,-0.300627 0.21487,-0.588975 0.34985,-0.865063 0.13498,-0.28222 0.27598,-0.530439 0.42323,-0.745172 0.14725,-0.214736 0.29459,-0.386374 0.44183,-0.515215 0.14725,-0.134975 0.28244,-0.202571 0.40515,-0.202571 z" />
  </g>
</svg>
