<?xml version="1.0" encoding="UTF-8" standalone="no"?>
<svg
   xmlns:dc="http://purl.org/dc/elements/1.1/"
   xmlns:cc="http://creativecommons.org/ns#"
   xmlns:rdf="http://www.w3.org/1999/02/22-rdf-syntax-ns#"
   xmlns:svg="http://www.w3.org/2000/svg"
   xmlns="http://www.w3.org/2000/svg"
   xmlns:sodipodi="http://sodipodi.sourceforge.net/DTD/sodipodi-0.dtd"
   xmlns:inkscape="http://www.inkscape.org/namespaces/inkscape"
   width="60mm"
   height="59.88483mm"
   viewBox="0 0 60 59.88483"
   version="1.1"
   id="svg8"
   inkscape:version="1.0.2-2 (e86c870879, 2021-01-15)"
   sodipodi:docname="menu.svg">
  <defs
     id="defs2">
    <inkscape:path-effect
       effect="bend_path"
       id="path-effect868"
       is_visible="true"
       lpeversion="1"
       bendpath="M 70.826424,46.103991 H 129.09118"
       prop_scale="1"
       scale_y_rel="false"
       vertical="false"
       hide_knot="false" />
    <inkscape:path-effect
       effect="bend_path"
       id="path-effect866"
       is_visible="true"
       lpeversion="1"
       bendpath="M 70.826424,46.103991 H 129.09118"
       prop_scale="1"
       scale_y_rel="false"
       vertical="false"
       hide_knot="false" />
  </defs>
  <sodipodi:namedview
     id="base"
     pagecolor="#ffffff"
     bordercolor="#666666"
     borderopacity="1.0"
     inkscape:pageopacity="0.0"
     inkscape:pageshadow="2"
     inkscape:zoom="0.98994949"
     inkscape:cx="76.880767"
     inkscape:cy="178.73589"
     inkscape:document-units="mm"
     inkscape:current-layer="layer1"
     inkscape:document-rotation="0"
     showgrid="false"
     fit-margin-top="0"
     fit-margin-left="0"
     fit-margin-right="0"
     fit-margin-bottom="0"
     inkscape:window-width="1920"
     inkscape:window-height="1017"
     inkscape:window-x="-8"
     inkscape:window-y="-8"
     inkscape:window-maximized="1" />
  <metadata
     id="metadata5">
    <rdf:RDF>
      <cc:Work
         rdf:about="">
        <dc:format>image/svg+xml</dc:format>
        <dc:type
           rdf:resource="http://purl.org/dc/dcmitype/StillImage" />
        <dc:title></dc:title>
      </cc:Work>
    </rdf:RDF>
  </metadata>
  <g
     inkscape:label="Vrstva 1"
     inkscape:groupmode="layer"
     id="layer1"
     transform="translate(-84.65863,-44.634007)">
    <path
       style="fill:#ffffff;stroke-width:0.257538"
       id="rect833"
       width="60"
       height="15"
       x="84.65863"
       y="44.634007"
       sodipodi:type="rect"
       ry="7.5"
       d="m 92.15863,44.634007 h 45 c 4.155,0 7.5,3.345 7.5,7.5 0,4.155 -3.345,7.5 -7.5,7.5 h -45 c -4.155,0 -7.5,-3.345 -7.5,-7.5 0,-4.155 3.345,-7.5 7.5,-7.5 z" />
    <path
       style="fill:#ffffff;stroke-width:0.257538"
       id="rect833-4"
       width="60"
       height="15"
       x="84.65863"
       y="67.076424"
       sodipodi:type="rect"
       ry="7.5"
       d="m 92.15863,67.076424 h 45 c 4.155,0 7.5,3.345 7.5,7.5 0,4.155 -3.345,7.5 -7.5,7.5 h -45 c -4.155,0 -7.5,-3.345 -7.5,-7.5 0,-4.155 3.345,-7.5 7.5,-7.5 z" />
    <path
       style="fill:#ffffff;stroke-width:0.257538"
       id="rect833-8"
       width="60"
       height="15"
       x="84.65863"
       y="89.518837"
       sodipodi:type="rect"
       ry="7.5"
       d="m 92.15863,89.518837 h 45 c 4.155,0 7.5,3.345 7.5,7.5 0,4.155003 -3.345,7.500003 -7.5,7.500003 h -45 c -4.155,0 -7.5,-3.345 -7.5,-7.500003 0,-4.155 3.345,-7.5 7.5,-7.5 z" />
  </g>
</svg>
