<?xml version="1.0" encoding="UTF-8" standalone="no"?>
<svg
   xmlns:dc="http://purl.org/dc/elements/1.1/"
   xmlns:cc="http://creativecommons.org/ns#"
   xmlns:rdf="http://www.w3.org/1999/02/22-rdf-syntax-ns#"
   xmlns:svg="http://www.w3.org/2000/svg"
   xmlns="http://www.w3.org/2000/svg"
   xmlns:sodipodi="http://sodipodi.sourceforge.net/DTD/sodipodi-0.dtd"
   xmlns:inkscape="http://www.inkscape.org/namespaces/inkscape"
   version="1.1"
   id="Layer_1"
   x="0px"
   y="0px"
   viewBox="0 0 339.033 339.033"
   style="enable-background:new 0 0 339.033 339.033;"
   xml:space="preserve"
   sodipodi:docname="NazarSites.svg"
   inkscape:version="1.0.2-2 (e86c870879, 2021-01-15)"><metadata
   id="metadata961"><rdf:RDF><cc:Work
       rdf:about=""><dc:format>image/svg+xml</dc:format><dc:type
         rdf:resource="http://purl.org/dc/dcmitype/StillImage" /></cc:Work></rdf:RDF></metadata><defs
   id="defs959"><rect
     x="114.35317"
     y="119.18499"
     width="41.854322"
     height="49.921815"
     id="rect1526" /></defs><sodipodi:namedview
   pagecolor="#ffffff"
   bordercolor="#666666"
   borderopacity="1"
   objecttolerance="10"
   gridtolerance="10"
   guidetolerance="10"
   inkscape:pageopacity="0"
   inkscape:pageshadow="2"
   inkscape:window-width="1920"
   inkscape:window-height="1009"
   id="namedview957"
   showgrid="false"
   inkscape:zoom="2.4835341"
   inkscape:cx="106.70278"
   inkscape:cy="153.35442"
   inkscape:window-x="-8"
   inkscape:window-y="-8"
   inkscape:window-maximized="1"
   inkscape:current-layer="Layer_1"
   inkscape:document-rotation="0" />
<g
   id="g924"
   transform="translate(-5.0524902e-4)"
   style="fill:#ffffff;fill-opacity:1">
	
	<path
   id="path922"
   style="fill:#ffffff;fill-opacity:1"
   d="M 169.51562 0 C 76.043625 0 1.8947806e-14 76.045578 0 169.51758 C 0 262.98858 76.043625 339.0332 169.51562 339.0332 C 262.98762 339.0332 339.0332 262.98958 339.0332 169.51758 C 339.0332 76.045578 262.98762 5.6843419e-14 169.51562 0 z M 195.66211 17.222656 C 237.06711 24.310656 272.89752 47.925578 296.10352 81.017578 L 246.03906 81.017578 C 242.23406 73.571578 237.94859 66.310297 233.18359 59.279297 C 222.60059 43.667297 209.42311 29.006656 195.66211 17.222656 z M 143.36719 17.224609 C 129.60719 29.004609 116.43261 43.668297 105.84961 59.279297 C 101.08361 66.310297 96.799141 73.571578 92.994141 81.017578 L 42.929688 81.017578 C 66.133688 47.926578 101.96319 24.312609 143.36719 17.224609 z M 162.01562 21.546875 L 162.01562 81.017578 L 109.99023 81.017578 C 112.54623 76.515578 115.29962 72.073266 118.26562 67.697266 C 133.70763 44.917266 150.63462 29.999875 162.01562 21.546875 z M 177.01562 21.546875 C 188.39663 29.999875 205.32362 44.915312 220.76562 67.695312 C 223.73163 72.071313 226.48697 76.513625 229.04297 81.015625 L 177.01562 81.015625 L 177.01562 21.546875 z M 33.628906 96.017578 L 86.089844 96.017578 C 77.335844 117.31058 72.382094 139.84964 71.496094 162.80664 L 15.15625 162.80664 C 16.19025 138.71664 22.756906 116.03758 33.628906 96.017578 z M 252.94336 96.017578 L 305.4043 96.017578 C 316.2763 116.03758 322.84295 138.71664 323.87695 162.80664 L 267.53711 162.80664 C 266.65111 139.84964 261.69736 117.31058 252.94336 96.017578 z M 129.65234 100.76172 C 132.07114 100.76172 134.12716 101.1553 135.82031 101.94141 C 137.57394 102.72751 139.0856 103.7849 140.35547 105.11523 C 141.68581 106.44557 143.01537 108.17066 144.3457 110.28711 C 145.73651 112.40355 147.1581 114.61035 148.60938 116.9082 L 200.40234 195.27734 L 200.40234 116.18164 C 200.40234 111.0417 201.4891 107.20184 203.66602 104.66211 C 205.9034 102.06191 208.89735 100.76172 212.64648 100.76172 C 216.51656 100.76172 219.57121 102.06191 221.80859 104.66211 C 224.04598 107.20184 225.16406 111.0417 225.16406 116.18164 L 225.16406 220.76562 C 225.16406 232.43631 220.32557 238.27148 210.65039 238.27148 C 208.2316 238.27148 206.05613 237.90728 204.12109 237.18164 C 202.18606 236.51647 200.37089 235.42776 198.67773 233.91602 C 196.98458 232.40427 195.41221 230.65176 193.96094 228.65625 C 192.50966 226.60027 191.0587 224.51293 189.60742 222.39648 L 139.08594 144.93555 L 139.08594 222.85156 C 139.08594 227.93103 137.9052 231.77089 135.54688 234.37109 C 133.18855 236.9713 130.16522 238.27148 126.47656 238.27148 C 122.66696 238.27148 119.61426 236.9713 117.31641 234.37109 C 115.01855 231.71042 113.86914 227.87056 113.86914 222.85156 L 113.86914 120.26367 C 113.86914 115.90984 114.35279 112.49294 115.32031 110.01367 C 116.46924 107.29253 118.37448 105.08573 121.03516 103.39258 C 123.69583 101.63895 126.56838 100.76172 129.65234 100.76172 z M 15.224609 177.80664 L 71.490234 177.80664 C 72.353234 201.12364 77.257813 223.45866 86.132812 244.59766 L 34.509766 244.59766 C 23.358766 224.62566 16.506609 201.94364 15.224609 177.80664 z M 267.54297 177.80664 L 323.80664 177.80664 C 322.52464 201.94464 315.67444 224.6247 304.52344 244.5957 L 252.90039 244.5957 C 261.77539 223.4567 266.67997 201.12464 267.54297 177.80664 z M 44.050781 259.5957 L 93.207031 259.5957 C 96.956031 266.7447 101.17591 273.74598 105.87891 280.58398 C 118.35691 298.72698 131.7677 312.22267 143.0957 321.76367 C 102.4677 314.73467 67.228781 291.7867 44.050781 259.5957 z M 110.42773 259.5957 L 162.01562 259.5957 L 162.01562 317.58789 C 145.26163 305.31889 125.53873 285.7487 110.42773 259.5957 z M 177.01562 259.5957 L 228.60547 259.5957 C 213.49447 285.7477 193.76963 305.31889 177.01562 317.58789 L 177.01562 259.5957 z M 245.82422 259.59766 L 294.98242 259.59766 C 271.80542 291.78666 236.56645 314.73367 195.93945 321.76367 C 207.26645 312.22367 220.6773 298.72594 233.1543 280.58594 C 237.8573 273.74794 242.07522 266.74666 245.82422 259.59766 z "
   transform="translate(5.0524902e-4)" />
</g>
<g
   id="g926">
</g>
<g
   id="g928">
</g>
<g
   id="g930">
</g>
<g
   id="g932">
</g>
<g
   id="g934">
</g>
<g
   id="g936">
</g>
<g
   id="g938">
</g>
<g
   id="g940">
</g>
<g
   id="g942">
</g>
<g
   id="g944">
</g>
<g
   id="g946">
</g>
<g
   id="g948">
</g>
<g
   id="g950">
</g>
<g
   id="g952">
</g>
<g
   id="g954">
</g>
</svg>
