<?xml version="1.0" encoding="UTF-8" standalone="no"?>
<svg
   xmlns:dc="http://purl.org/dc/elements/1.1/"
   xmlns:cc="http://creativecommons.org/ns#"
   xmlns:rdf="http://www.w3.org/1999/02/22-rdf-syntax-ns#"
   xmlns:svg="http://www.w3.org/2000/svg"
   xmlns="http://www.w3.org/2000/svg"
   xmlns:sodipodi="http://sodipodi.sourceforge.net/DTD/sodipodi-0.dtd"
   xmlns:inkscape="http://www.inkscape.org/namespaces/inkscape"
   version="1.1"
   id="Layer_1"
   x="0px"
   y="0px"
   viewBox="0 0 339.033 339.033"
   style="enable-background:new 0 0 339.033 339.033;"
   xml:space="preserve"
   sodipodi:docname="NazarSites.svg"
   inkscape:version="1.0.2-2 (e86c870879, 2021-01-15)"><metadata
   id="metadata917"><rdf:RDF><cc:Work
       rdf:about=""><dc:format>image/svg+xml</dc:format><dc:type
         rdf:resource="http://purl.org/dc/dcmitype/StillImage" /></cc:Work></rdf:RDF></metadata><defs
   id="defs915"><rect
     x="111.18598"
     y="124.66307"
     width="37.904315"
     height="53.908352"
     id="rect933" /></defs><sodipodi:namedview
   pagecolor="#ffffff"
   bordercolor="#666666"
   borderopacity="1"
   objecttolerance="10"
   gridtolerance="10"
   guidetolerance="10"
   inkscape:pageopacity="0"
   inkscape:pageshadow="2"
   inkscape:window-width="1920"
   inkscape:window-height="1009"
   id="namedview913"
   showgrid="false"
   inkscape:zoom="2.3744001"
   inkscape:cx="137.50842"
   inkscape:cy="169.5165"
   inkscape:window-x="-8"
   inkscape:window-y="-8"
   inkscape:window-maximized="1"
   inkscape:current-layer="g880" />
<g
   id="g880">
	
	<path
   id="path878"
   style="fill:#ffffff;fill-opacity:1"
   d="M 169.51562 0 C 76.043635 0 1.8947806e-14 76.045587 0 169.51758 C 0 262.98858 76.043635 339.0332 169.51562 339.0332 C 262.98763 339.0332 339.0332 262.98958 339.0332 169.51758 C 339.0332 76.045587 262.98763 -9.4739031e-14 169.51562 0 z M 195.66211 17.222656 C 237.06711 24.310656 272.89752 47.925578 296.10352 81.017578 L 246.03906 81.017578 C 242.23406 73.571578 237.94859 66.310297 233.18359 59.279297 C 222.60059 43.667297 209.42311 29.006656 195.66211 17.222656 z M 143.36719 17.224609 C 121.83541 36.937474 105.27381 57.125619 92.994141 81.017578 L 42.929688 81.017578 C 66.133687 47.926578 101.96319 24.312609 143.36719 17.224609 z M 162.01562 21.546875 L 162.01562 81.017578 L 109.99023 81.017578 C 123.10529 58.626999 141.07148 37.279747 162.01562 21.546875 z M 177.01562 21.546875 C 188.39663 29.999875 205.32363 44.915312 220.76562 67.695312 C 223.73163 72.071313 226.48697 76.513625 229.04297 81.015625 L 177.01562 81.015625 L 177.01562 21.546875 z M 33.628906 96.017578 L 86.089844 96.017578 C 77.335844 117.31057 72.382094 139.84964 71.496094 162.80664 L 15.15625 162.80664 C 16.19025 138.71664 22.756906 116.03757 33.628906 96.017578 z M 252.94336 96.017578 L 305.4043 96.017578 C 316.2763 116.03757 322.84295 138.71664 323.87695 162.80664 L 267.53711 162.80664 C 266.65111 139.84964 261.69736 117.31057 252.94336 96.017578 z M 111.34766 105.52539 L 138.62891 105.52539 L 200.4043 193.41016 L 200.4043 105.52539 L 227.68555 105.52539 L 227.68555 233.50781 L 200.4043 233.50781 L 138.62891 145.80664 L 138.62891 233.50781 L 111.34766 233.50781 L 111.34766 105.52539 z M 15.224609 177.80664 L 71.490234 177.80664 C 72.353234 201.12364 77.257812 223.45866 86.132812 244.59766 L 34.509766 244.59766 C 23.358766 224.62566 16.506609 201.94364 15.224609 177.80664 z M 267.54297 177.80664 L 323.80664 177.80664 C 322.52464 201.94464 315.67444 224.6247 304.52344 244.5957 L 252.90039 244.5957 C 261.77539 223.4567 266.67997 201.12464 267.54297 177.80664 z M 44.050781 259.5957 L 93.207031 259.5957 C 96.956031 266.7447 101.17591 273.74598 105.87891 280.58398 C 118.35691 298.72698 131.7677 312.22267 143.0957 321.76367 C 102.4677 314.73467 67.228781 291.7867 44.050781 259.5957 z M 110.42773 259.5957 L 162.01562 259.5957 L 162.01562 317.58789 C 145.26163 305.31889 125.53873 285.7487 110.42773 259.5957 z M 177.01562 259.5957 L 228.60352 259.5957 C 213.49252 285.7477 193.76962 305.31889 177.01562 317.58789 L 177.01562 259.5957 z M 245.82422 259.59766 L 294.98242 259.59766 C 271.80542 291.78666 236.56645 314.73367 195.93945 321.76367 C 207.26645 312.22367 220.6773 298.72594 233.1543 280.58594 C 237.8573 273.74794 242.07522 266.74666 245.82422 259.59766 z " />
</g>
<g
   id="g882">
</g>
<g
   id="g884">
</g>
<g
   id="g886">
</g>
<g
   id="g888">
</g>
<g
   id="g890">
</g>
<g
   id="g892">
</g>
<g
   id="g894">
</g>
<g
   id="g896">
</g>
<g
   id="g898">
</g>
<g
   id="g900">
</g>
<g
   id="g902">
</g>
<g
   id="g904">
</g>
<g
   id="g906">
</g>
<g
   id="g908">
</g>
<g
   id="g910">
</g>
</svg>
